<?xml version="1.0" standalone="no"?>
<svg xmlns="http://www.w3.org/2000/svg" viewBox="0 0 1440 320">
    <path fill="#ff7040" fill-opacity="1" d="M0,160L60,176C120,192,240,224,360,224C480,224,600,192,720,176C840,160,960,160,1080,176C1200,192,1320,224,1380,240L1440,256L1440,0L1380,0C1320,0,1200,0,1080,0C960,0,840,0,720,0C600,0,480,0,360,0C240,0,120,0,60,0L0,0Z" transform="scale(1.2 0.8) translate(20 20)"></path>
    <path fill="#ffa352" fill-opacity="1" d="M0,160L60,176C120,192,240,224,360,224C480,224,600,192,720,176C840,160,960,160,1080,176C1200,192,1320,224,1380,240L1440,256L1440,0L1380,0C1320,0,1200,0,1080,0C960,0,840,0,720,0C600,0,480,0,360,0C240,0,120,0,60,0L0,0Z" transform="scale(1.1 0.8) translate(-10 20)"></path>
    <path fill="#f5b984" fill-opacity="1" d="M0,160L60,176C120,192,240,224,360,224C480,224,600,192,720,176C840,160,960,160,1080,176C1200,192,1320,224,1380,240L1440,256L1440,0L1380,0C1320,0,1200,0,1080,0C960,0,840,0,720,0C600,0,480,0,360,0C240,0,120,0,60,0L0,0Z" transform="scale(1 0.8)"></path>
</svg>